<svg xmlns="http://www.w3.org/2000/svg" viewBox="0 0 45.6 45.6"><defs><style>.cls-1{fill:#fff;}</style></defs><title>complete</title><g id="Layer_2" data-name="Layer 2"><g id="Layer_1-2" data-name="Layer 1"><path class="cls-1" d="M39.34,30.8l-4.48,6.43-3.16-2.59a.8.8,0,1,0-1,1.23L34.52,39a.79.79,0,0,0,.5.18h.11a.81.81,0,0,0,.55-.34l5-7.14a.8.8,0,0,0-1.31-.91Zm0,0"/><path class="cls-1" d="M43.2,28.56V9.74A9.75,9.75,0,0,0,33.46,0H9.74A9.75,9.75,0,0,0,0,9.74V33.46A9.75,9.75,0,0,0,9.74,43.2H28.56A10.39,10.39,0,0,0,43.2,28.56ZM9.74,41.6A8.15,8.15,0,0,1,1.6,33.46V9.74A8.15,8.15,0,0,1,9.74,1.6H33.46A8.15,8.15,0,0,1,41.6,9.74V27l-.19-.13c-.17-.13-.34-.25-.51-.37l-.05,0a10.2,10.2,0,0,0-1.29-.71l-.18-.09-.53-.21-.34-.12-.5-.15-.43-.11L37.1,25l-.56-.08-.37-.05c-.32,0-.64,0-1,0a10.41,10.41,0,0,0-10.11,8H21.6a.8.8,0,1,0,0,1.6h3.24c0,.27,0,.53,0,.8s0,.65,0,1c0,.13,0,.25.05.38s0,.37.08.55.06.31.1.46.07.29.11.43.1.34.15.51l.12.34c.07.18.14.37.22.55l.08.16a10.12,10.12,0,0,0,.73,1.34l0,0c.12.18.24.34.37.51l.13.19ZM35.2,44a8.75,8.75,0,0,1-5.87-2.27c-.19-.17-.38-.35-.55-.54l-.11-.12c-.17-.19-.33-.38-.48-.58l-.11-.14c-.14-.2-.29-.41-.41-.63l-.08-.13a7.77,7.77,0,0,1-.36-.7l-.06-.11c-.11-.25-.21-.5-.29-.75l0-.09c-.09-.26-.16-.53-.22-.8a.86.86,0,0,1,0-.09c-.06-.27-.1-.54-.13-.8,0,0,0-.07,0-.11a9.14,9.14,0,0,1-.05-.93,8.81,8.81,0,0,1,8.8-8.8,9.27,9.27,0,0,1,.93.05l.1,0c.27,0,.54.07.81.13l.09,0c.27.06.54.13.8.22l.09,0c.26.09.51.19.76.3l.11.05.7.36.13.08c.21.13.43.27.64.42l.13.09c.2.15.4.32.59.48l.12.11c.19.18.38.36.55.56A8.78,8.78,0,0,1,35.2,44Zm0,0"/><path class="cls-1" d="M21.6,11.2H36a.8.8,0,1,0,0-1.6H21.6a.8.8,0,1,0,0,1.6Zm0,0"/><path class="cls-1" d="M21.6,22.4H36a.8.8,0,1,0,0-1.6H21.6a.8.8,0,1,0,0,1.6Zm0,0"/><path class="cls-1" d="M15.34,5.88l-5,5.83L7.28,9.42a.8.8,0,1,0-1,1.28L10,13.44a.79.79,0,0,0,.48.16.8.8,0,0,0,.61-.28l5.49-6.4a.8.8,0,0,0-1.21-1Zm0,0"/><path class="cls-1" d="M15.34,17.08l-5,5.83L7.28,20.62a.8.8,0,1,0-1,1.28L10,24.64a.8.8,0,0,0,1.09-.12l5.49-6.4a.8.8,0,0,0-1.21-1Zm0,0"/><path class="cls-1" d="M15.34,29.08l-5,5.83L7.28,32.62a.8.8,0,1,0-1,1.28L10,36.64a.8.8,0,0,0,1.09-.12l5.49-6.4a.8.8,0,0,0-1.21-1Zm0,0"/></g></g></svg>