<svg xmlns="http://www.w3.org/2000/svg" xmlns:xlink="http://www.w3.org/1999/xlink" viewBox="0 0 166.07 144.78"><defs><style>.cls-1{fill:none;}.cls-2{clip-path:url(#clip-path);}.cls-3{fill:#0c82bb;}</style><clipPath id="clip-path" transform="translate(0 -0.18)"><rect class="cls-1" width="166.8" height="145.92"/></clipPath></defs><title>negotiate</title><g id="Layer_2" data-name="Layer 2"><g id="Layer_1-2" data-name="Layer 1"><g class="cls-2"><path class="cls-3" d="M163.63,53.75,112.5,2.61a8.33,8.33,0,0,0-11.77,0l-7.87,7.87a8.31,8.31,0,0,0,0,11.77l2.31,2.3a94.86,94.86,0,0,0-11.08,5.27c-4.55-3.47-8.26-6.22-10.57-7.92a8.31,8.31,0,0,0-.29-11.43L65.34,2.62a8.35,8.35,0,0,0-11.77,0L2.43,53.75a8.33,8.33,0,0,0,0,11.77l7.87,7.87a8.27,8.27,0,0,0,11.42.3c1.83,2.52,4.83,6.61,8.41,11.31l-8,8a2.78,2.78,0,0,0,0,3.93l9.83,9.83,3.93,3.93h0l5.9,5.9,27.52,27.51a2.78,2.78,0,0,0,3.93,0l8.59-8.59c5.23,3.9,9,6.63,9.44,6.92a2.77,2.77,0,0,0,3.58-.3l37.34-37.34h0L142,95a2.78,2.78,0,0,0,.3-3.58c-.31-.44-3.38-4.72-7.69-10.48l5.63-11.3L144,73.4a8.33,8.33,0,0,0,11.77,0l7.87-7.87a8.31,8.31,0,0,0,0-11.77ZM18.15,69.47a2.74,2.74,0,0,1-3.91,0L6.37,61.59a2.77,2.77,0,0,1,0-3.91L57.5,6.54a2.74,2.74,0,0,1,1.94-.82,2.78,2.78,0,0,1,2,.83l7.87,7.87a2.77,2.77,0,0,1,0,3.91ZM28,95l5.56-5.56c2.25,2.89,4.6,5.87,7,8.76l-4.66,4.66ZM45.68,112.7l-5.9-5.9,4.31-4.3c1.93,2.26,3.8,4.37,5.56,6.23Zm11.79,11.79-7.86-7.86,4-4C56,115,58.9,117.46,62,120Zm13.76,13.76-9.82-9.83,4.86-4.87c3.74,3,7.54,6,11,8.62Zm65.16-45.5-6.19,6.19L104.65,73.39a2.78,2.78,0,1,0-3.93,3.93l25.55,25.55-7.86,7.86L92.86,85.18a2.78,2.78,0,1,0-3.93,3.93l25.55,25.55-7.86,7.86L81.07,97a2.78,2.78,0,1,0-3.93,3.93l25.56,25.55L92.57,136.57c-6.41-4.66-27.34-20.06-37.05-29.77C50,101.25,42.55,92,36.35,84a2.72,2.72,0,0,0-.5-.75s-.1-.06-.16-.1c-4.36-5.7-8.06-10.75-10-13.36L69.55,25.93c1.93,1.41,5.23,3.85,9.37,7A80.6,80.6,0,0,0,65.57,43.59c-6.65,6.65-11,11.51-13.42,14.87C51,60.11,48.23,64,50.85,66.57c.61.61,1.75,1.75,12.6,2.77h.26a2.81,2.81,0,0,0,1.18-.26c5.78-2.71,16.48-6.83,20.5-6.39,6.38.71,15.82-4.57,20.93-7.46a2.44,2.44,0,0,0,.3.45c9.71,9.71,25.11,30.64,29.77,37.05ZM130.85,76c-6.41-8.39-14.3-18.23-20.31-24.24a2.79,2.79,0,0,0-1.21-.67,2.6,2.6,0,0,0-.18-.57,2.77,2.77,0,0,0-3.76-1.13c-.46.25-1,.58-1.74,1-3.89,2.2-13,7.33-17.64,6.82-6.34-.73-19.35,5-22.8,6.55-2.6-.27-5.48-.65-7.28-1,1.17-1.89,4.45-6.1,13.55-15.21,11.28-11.28,25.34-17,30-18.63L136.08,65.5Zm28.84-14.41-7.87,7.87a2.77,2.77,0,0,1-3.91,0L102.41,24a2.38,2.38,0,0,0-.18-.17l-5.46-5.46a2.76,2.76,0,0,1,0-3.91l7.87-7.87a2.78,2.78,0,0,1,2-.81,2.74,2.74,0,0,1,1.95.8L159.7,57.68a2.75,2.75,0,0,1,0,3.91Zm0,0" transform="translate(0 -0.18)"/></g></g></g></svg>